<?xml version="1.0" encoding="utf-8"?>
<!-- Generator: Adobe Illustrator 15.0.2, SVG Export Plug-In . SVG Version: 6.00 Build 0)  -->
<!DOCTYPE svg PUBLIC "-//W3C//DTD SVG 1.1//EN" "http://www.w3.org/Graphics/SVG/1.1/DTD/svg11.dtd">
<svg version="1.1" xmlns="http://www.w3.org/2000/svg" xmlns:xlink="http://www.w3.org/1999/xlink" x="0px" y="0px" width="15.05px"
	 height="15.05px" viewBox="0 0 15.05 15.05" enable-background="new 0 0 15.05 15.05" xml:space="preserve">
<g id="Layer_2" display="none">
	<rect display="inline" width="15.05" height="15.05"/>
</g>
<g id="Layer_1">
	<g>
		<g>
			<defs>
				<rect id="SVGID_1_" width="15.05" height="15.05"/>
			</defs>
			<clipPath id="SVGID_2_">
				<use xlink:href="#SVGID_1_"  overflow="visible"/>
			</clipPath>
			<path clip-path="url(#SVGID_2_)" fill="#FFFFFF" d="M13.955,0H1.094C0.492,0,0,0.493,0,1.095v12.86
				c0,0.603,0.492,1.096,1.094,1.096h6.821c-0.01-1.887,0.022-3.817-0.016-5.678H5.997c0.011-0.731-0.022-1.506,0.016-2.211h1.903
				C7.957,6.335,7.847,5.547,7.948,4.9c0.199-1.279,1.042-2.07,2.342-2.244c0.681-0.092,1.461-0.016,2.181,0.063
				c-0.013,0.651,0.021,1.344-0.019,1.968c-0.867,0.043-1.777-0.176-2.113,0.407c-0.272,0.473-0.062,1.333-0.131,2.065
				c0.722,0.011,1.485-0.021,2.181,0.016c-0.104,0.727-0.185,1.476-0.293,2.197h-1.888v5.676h3.746c0.604,0,1.096-0.492,1.096-1.094
				V1.095C15.05,0.493,14.558,0,13.955,0"/>
		</g>
	</g>
</g>
</svg>
