<?xml version="1.0" encoding="utf-8"?>
<!-- Generator: Adobe Illustrator 15.0.2, SVG Export Plug-In . SVG Version: 6.00 Build 0)  -->
<!DOCTYPE svg PUBLIC "-//W3C//DTD SVG 1.1//EN" "http://www.w3.org/Graphics/SVG/1.1/DTD/svg11.dtd">
<svg version="1.1" xmlns="http://www.w3.org/2000/svg" xmlns:xlink="http://www.w3.org/1999/xlink" x="0px" y="0px" width="15.05px"
	 height="15.05px" viewBox="0 0 15.05 15.05" enable-background="new 0 0 15.05 15.05" xml:space="preserve">
<g id="Layer_2" display="none">
	<rect display="inline" width="15.05" height="15.05"/>
</g>
<g id="Layer_1">
	<g display="none">
		<g display="inline">
			<defs>
				<rect id="SVGID_1_" x="-19.312" y="-13.75" width="15.05" height="15.05"/>
			</defs>
			<clipPath id="SVGID_2_">
				<use xlink:href="#SVGID_1_"  overflow="visible"/>
			</clipPath>
			<path clip-path="url(#SVGID_2_)" fill="#FFFFFF" d="M-5.357-13.75h-12.861c-0.602,0-1.094,0.493-1.094,1.095v12.86
				c0,0.602,0.492,1.095,1.094,1.095h6.821c-0.01-1.887,0.022-3.817-0.016-5.677h-1.903c0.011-0.732-0.022-1.507,0.016-2.212h1.903
				c0.041-0.826-0.068-1.614,0.033-2.261c0.199-1.279,1.042-2.07,2.343-2.244c0.68-0.092,1.461-0.016,2.18,0.063
				c-0.012,0.651,0.021,1.344-0.018,1.968c-0.867,0.043-1.777-0.176-2.113,0.407C-9.245-8.182-9.035-7.322-9.103-6.59
				c0.721,0.011,1.485-0.021,2.18,0.016c-0.104,0.727-0.184,1.476-0.293,2.196h-1.887V1.3h3.746c0.603,0,1.096-0.493,1.096-1.095
				v-12.86C-4.262-13.257-4.755-13.75-5.357-13.75"/>
		</g>
	</g>
	<g>
		<g>
			<defs>
				<rect id="SVGID_3_" width="15.05" height="15.05"/>
			</defs>
			<clipPath id="SVGID_4_">
				<use xlink:href="#SVGID_3_"  overflow="visible"/>
			</clipPath>
			<path clip-path="url(#SVGID_4_)" fill="#FFFFFF" d="M7.545,9.505c0.613-0.012,1.06-0.258,1.39-0.588
				c0.314-0.314,0.578-0.783,0.572-1.41C9.5,6.886,9.238,6.435,8.917,6.114c-0.312-0.313-0.799-0.58-1.404-0.568
				c-0.63,0.012-1.085,0.269-1.397,0.588C5.793,6.462,5.543,6.916,5.547,7.54C5.55,8.173,5.805,8.604,6.135,8.935
				C6.445,9.244,6.925,9.519,7.545,9.505"/>
		</g>
		<g>
			<defs>
				<rect id="SVGID_5_" width="15.05" height="15.05"/>
			</defs>
			<clipPath id="SVGID_6_">
				<use xlink:href="#SVGID_5_"  overflow="visible"/>
			</clipPath>
			<path clip-path="url(#SVGID_6_)" fill="#FFFFFF" d="M11.488,6.734h-0.89c0.149,0.494,0.114,1.136-0.004,1.604
				c-0.121,0.476-0.347,0.884-0.613,1.201c-0.272,0.328-0.599,0.609-1.003,0.811s-0.874,0.352-1.454,0.35
				c-0.582,0-1.056-0.146-1.459-0.354c-0.405-0.209-0.719-0.48-0.999-0.814C4.67,9.052,4.35,8.396,4.35,7.528
				c0-0.257,0.035-0.504,0.081-0.709c0.006-0.028,0.022-0.056,0.017-0.085H3.564C3.56,6.735,3.56,6.74,3.561,6.746v3.263
				c0,0.361-0.014,0.73,0,1.093c0.006,0.163,0.09,0.274,0.205,0.339c0.123,0.066,0.307,0.049,0.496,0.049c2.195,0,4.343,0,6.528,0
				c0.19,0,0.375,0.018,0.496-0.049c0.115-0.064,0.199-0.179,0.201-0.348c0.014-0.729,0-1.454,0-2.18
				C11.488,8.193,11.488,7.473,11.488,6.734"/>
		</g>
		<g>
			<defs>
				<rect id="SVGID_7_" width="15.05" height="15.05"/>
			</defs>
			<clipPath id="SVGID_8_">
				<use xlink:href="#SVGID_7_"  overflow="visible"/>
			</clipPath>
			<path clip-path="url(#SVGID_8_)" fill="#FFFFFF" d="M11.162,3.563c-0.091-0.015-0.205-0.004-0.317-0.004h-0.322
				c-0.226,0-0.45-0.016-0.651,0.004C9.682,3.582,9.567,3.7,9.526,3.846C9.5,3.944,9.509,4.062,9.509,4.18c0,0.234,0,0.473,0,0.709
				c0,0.12-0.014,0.247,0.009,0.347C9.55,5.382,9.673,5.508,9.841,5.535c0.093,0.014,0.212,0.004,0.326,0.004h0.66
				c0.115,0,0.232,0.011,0.33-0.004c0.166-0.025,0.288-0.148,0.322-0.303c0.021-0.092,0.008-0.218,0.008-0.338V4.201
				c0-0.104,0.02-0.222-0.008-0.34C11.447,3.723,11.337,3.593,11.162,3.563"/>
		</g>
		<g>
			<defs>
				<rect id="SVGID_9_" width="15.05" height="15.05"/>
			</defs>
			<clipPath id="SVGID_10_">
				<use xlink:href="#SVGID_9_"  overflow="visible"/>
			</clipPath>
			<path clip-path="url(#SVGID_10_)" fill="#FFFFFF" d="M12.682,11.189c0,0.223,0.009,0.439-0.037,0.607
				c-0.087,0.326-0.29,0.576-0.56,0.73c-0.135,0.076-0.305,0.141-0.487,0.152c-0.211,0.014-0.431,0-0.646,0H3.862
				c-0.226,0-0.437,0.009-0.608-0.037c-0.166-0.043-0.307-0.115-0.431-0.213c-0.235-0.184-0.421-0.454-0.452-0.834
				c-0.016-0.208-0.004-0.424-0.004-0.641v-7.09c0-0.225-0.007-0.438,0.037-0.608c0.043-0.168,0.12-0.311,0.213-0.431
				c0.189-0.244,0.467-0.426,0.838-0.456c0.196-0.016,0.438-0.004,0.649-0.004h7.09c0.224,0,0.435-0.005,0.604,0.041
				c0.33,0.088,0.572,0.288,0.729,0.56c0.077,0.133,0.143,0.301,0.153,0.487c0.013,0.207,0,0.425,0,0.645
				C12.682,6.466,12.682,8.813,12.682,11.189 M13.955,0H1.094C0.492,0,0,0.493,0,1.095v12.86c0,0.603,0.492,1.096,1.094,1.096h12.86
				c0.604,0,1.096-0.493,1.096-1.096V1.095C15.05,0.493,14.558,0,13.955,0"/>
		</g>
	</g>
</g>
</svg>
