<?xml version="1.0" encoding="utf-8"?>
<!-- Generator: Adobe Illustrator 18.1.1, SVG Export Plug-In . SVG Version: 6.00 Build 0)  -->
<svg version="1.1" id="Layer_1" xmlns="http://www.w3.org/2000/svg" xmlns:xlink="http://www.w3.org/1999/xlink" x="0px" y="0px"
	 viewBox="0 0 1526 1942" enable-background="new 0 0 1526 1942" xml:space="preserve">
<path fill-rule="evenodd" clip-rule="evenodd" fill="#FFFFFF" d="M78.4,1243.8c-2.3-28.5-3.4-64.9-3-104.7
	c6.5-11.8,15.6-22.4,27.3-32.3c24.7-20.5,58-34.5,99.4-42.8l3.4-9.5l-1.9-11.4l-6.1-6c-46.3,3-86.1,13.3-120.6,32.2
	c2.7-68.6,9.1-139.9,18.6-193.8c0-152.1-19.7-277.3,0-456.3c0-69-19.7-144.9,0-207.1v-99.8c0-23.2,241.6-16.7,361.1,0
	c155.1-13.7,306.5-10.2,451.7,0c132,13.6,404.7-19,487.4-9.9l-71.7,59.2c0.8,6.1,1.2,12.9,1.9,19c0,7.2,0,17.1,0.4,31.1
	c1.5,146.4-31.5,288.6-96.7,427.8c-66.4,139.6-168.8,280.3-308,422.6c4.2-37.5,9.5-82.7,16.7-135.8c5.7-53.1,8.7-83.1,9.5-89.9
	l14-166.5c8.7-34.9,14.8-68.6,17.9-101.7c4.1-47.4,1.9-91.4-6.1-132c0-1.2,0-2.7,0-3.8l-0.7,0.4c-13.3-61.1-40.2-115-82.3-160.1
	c-70.6-77.4-173.7-122.5-308.8-137C452,122.2,343.9,137,254.4,178.3c-89.2,41-138.1,97.8-144.5,170.7
	c-5.7,53.9,12.5,103.9,53.5,147.9c41,44.4,97.1,74.7,166.9,89.9c-30.4,34.9-58.8,69-81.2,102.8c-22.8,33-41.8,66-56.2,98.2l1.5,8.7
	l12.9,8.3l9.1-3.8c22-37.2,46.6-72.8,71.3-107.3c24.7-33.8,50.8-66,78.2-96.4c4.9,1.5,10.6,2.3,16.6,2.7c5.7,1.5,12.1,2.3,22.4,3.8
	c93.3,9.5,180.5-6.8,260.9-45.9c81.2-39.4,143.4-97.1,188.5-174.1l0,0c7.2,25.4,10.2,52.4,12.5,82.3c2.7,30,1.5,63-1.5,97.1
	c-9.5,104.3-33.4,201.8-70.9,295.9c-38.7,94.5-98.6,171.4-163.1,236.7c-93.3,105.1-312.6,214.3-452.5,199.1
	c-38.7-4.2-67.5-16-88.8-36.8C86,1253.6,81.8,1248.7,78.4,1243.8z M726.8,390.5c-53.5,5.3-109.2,22.7-167.7,53.9
	c-58,31.5-116.1,74-173,128.6l26.6,1.5c74.7,3,139.2-12.1,194.2-44.4C663.1,497.8,702.9,451.6,726.8,390.5L726.8,390.5z
	 M817.8,347.6c-21.2-55-58.8-97.5-111.1-127.8C655.1,188.7,591,171.6,515.1,169c-98.2-3.4-179.8,14.8-246.2,55
	c-64.9,40.2-99,91.4-101.3,154c-1.5,44,13.3,82.7,44,115.7c30.7,33.3,74.4,57.6,132.4,73.6c77-74.4,154-131.6,229.8-169.6
	c75.1-37.2,148.3-54.6,217.3-52.3c3.4,0,7.6,0.7,13.3,0.7C810.2,346.8,814.4,347.6,817.8,347.6L817.8,347.6z M1409.8,289.9
	c2.3,9.9,5.3,19.3,9.9,28.8c35.7,84.5,16,170.7,0,254.1c-23.9,147.9,22.4,303.5,0,468.8c25.8,89.5,16,165.4,0,264.7
	c0,13.7-133.1,19.8-215.8,0c-102.4-26.5-192.7,0-289,0c-91.4,23.2-152.1,9.9-233.3,0c-96.4-16.6-186.2,0-279.5,0
	c-28,5-55,8.4-80.8,10.7c138.4-34.5,281.5-110.8,371.7-207.1c36.4-33.8,79.2-89.2,111.9-135.4c26.1-36.8,57.2-96.3,64.1-120.2
	l-44.7,322l11,9.1l0,0c83.4-70.9,160.8-151.3,234.4-241.2c73.2-88.8,136.6-182.4,192.7-280.3c36-63.7,66-127.1,91.4-191.5
	C1375.3,416.2,1393.9,355.6,1409.8,289.9z"/>
<path fill-rule="evenodd" clip-rule="evenodd" fill="#FFFFFF" d="M192.2,1476.7c-10.2,1.1-20.5,4.9-31.1,10.6
	c-11,6.1-21.6,14-32.2,24.3h5.3c14,0,26.2-3,36.4-9.1C180.8,1496.4,188,1487.7,192.2,1476.7L192.2,1476.7z M208.9,1468.3
	c-4.1-9.9-11.7-17.1-21.6-22.4c-10.2-4.9-22.4-7.6-36.8-7.6c-18.2,0-33.8,3.8-45.9,11.4c-12.1,7.6-18.2,17.1-18.2,28.5
	c0,8,3,14.8,9.1,20.5c6,5.7,14.4,9.5,25.4,12.1c14-14,28.1-24.6,42.5-31.9c14-7.2,27.7-11,40.6-11c0.4,0,1.5,0,2.7,0
	C207.4,1468.3,208.5,1468.3,208.9,1468.3L208.9,1468.3z M210.4,1471.4L210.4,1471.4c1.9,4.6,3,9.1,3.8,14.4c1.2,5.3,1.5,11,1.5,17.5
	c0,18.6-2.7,36.4-8.4,53.9c-5.3,17.4-12.9,32.6-22.7,45.1c-7.2,9.5-15.5,16.7-24.6,22c-9.5,5.3-18.6,8-27.7,8
	c-7.2,0-12.9-1.5-17.5-4.9c-4.1-3.4-6.4-8-6.4-13.3s2.3-9.9,6.4-13.7c4.2-4.1,10.3-7.2,17.9-9.4l0.4-1.5l-0.4-2.3l-1.5-0.7
	c-11,1.9-20.1,5.7-27.3,12.1c-7.2,6-10.6,12.9-10.6,20.5c0,6.8,2.7,12.1,8,16c4.9,3.8,12.5,5.7,21.6,5.7c11.7,0,24.3-3.4,37.5-9.9
	c12.9-6.5,24.6-15.5,35.7-27.3c6-6.5,12.1-14,17.1-23.2c5.3-8.7,9.9-18.2,14-28.8c3-8.7,5.7-17.4,7.2-25.8
	c1.9-8.4,2.7-16.3,2.7-23.9c0-21.6-7.2-38.3-22-50.8c-14.4-12.5-34.6-18.6-60.3-18.6c-24.3,0-44.4,4.6-60.7,13.7
	c-16,9.1-23.9,20.1-23.9,33.4c0,9.5,4.2,17.8,12.5,25c8.7,7.2,19.7,11.4,33.4,12.9c-5.3,6.8-9.9,13.7-13.7,20.1
	c-3.8,6.4-6.8,12.5-8.7,18.2l0.4,1.9l2.7,1.1l1.5-1.1c3.8-6.8,7.6-13.7,11.3-20.1c4.2-6.8,8.4-12.9,12.9-19c1.1,0.4,2.2,0.4,3.4,0.4
	c1.1,0,2.3,0,4.2,0c17.8,0,33.7-4.2,48.1-12.9C192.9,1497.2,203.5,1485.8,210.4,1471.4z M523.7,1506.6L523.7,1506.6
	c1.9,0,3.4-1.1,4.1-3c1.2-1.9,1.5-4.9,1.5-9.5c0-1.9-1.1-3-3.8-4.2c-1.1-0.4-1.5-0.7-2.2-1.1c-0.8-0.4-1.9-1.2-3.8-2.7
	c-1.9-1.2-3.4-1.9-4.6-1.9c-0.7,0-2.3,1.9-4.6,5.7c-1.9,3.8-3,6.5-3,8c0,1.9,1.9,3.8,5.3,5.7
	C516.5,1505.5,519.9,1506.6,523.7,1506.6z M615.4,1542.3c-1.5-1.9-3.4-3.8-4.9-4.6c-1.5-1.2-3.4-1.5-5.7-1.5
	c-3.4,0-6.8,1.1-10.2,3.8c-3.8,2.7-8,6.8-12.5,12.1c-7.6,9.4-13.7,18.6-17.8,28.4c-4.2,9.5-6.5,17.9-6.5,25.4c0,4.1,0.7,7.2,2.3,9.5
	c1.9,2.3,4.2,3.4,7.6,3.4c6.5,0,14.4-7.2,23.5-21.3C600.2,1583.3,608.2,1565.1,615.4,1542.3L615.4,1542.3z M676.4,1590.4
	c13.3-3,24.3-8.7,32.6-17.1c8.7-8.7,12.9-17.8,12.9-27.7c0-3.4-0.8-6.1-2.3-8c-1.9-1.9-4.2-2.7-7.2-2.7c-7.2,0-14.4,5.3-21.6,16
	C683.6,1561.2,679.1,1574.5,676.4,1590.4L676.4,1590.4z M969.9,1635.2L969.9,1635.2c16.3-13.3,31.1-28.5,45.1-45.2
	c14.4-16.6,26.9-34.5,37.6-52.7c7.2-12.1,12.9-24.3,17.8-36.4c4.9-12.1,9.1-25.8,12.9-40.6c1.2-5.7,2.3-11,3.1-15.9
	c0.7-4.9,1.1-8.7,1.1-11.4c0-1.2,0-1.9-0.4-3c0-1.2,0-1.9-0.4-3.1l-1.9-0.4l-19.3,15.6c0,1.1,0,2.3,0.4,3.4c0,1.5,0,3.4,0,6.1
	c0,27.7-6.4,54.6-19.3,80.8c-13.3,26.6-33,52.7-59.5,79.6c0.7-7.2,1.9-15.5,3-25.8c1.5-9.9,1.9-15.5,2.3-17.1l4.6-48.6
	c0.4-3.8,0.7-8,0.7-12.1c0.4-4.2,0.4-9.1,0.4-14c0-21.6-6.8-37.5-20.5-47.8c-14-10.3-35.3-15.6-64.5-15.6
	c-22.7,0-40.9,4.2-54.2,12.1c-13.3,8.4-19.7,19.3-19.7,33.4c0,14,6.5,25,19,33.4c12.5,8,29.6,12.1,51.6,12.1c4.6,0,9.1-0.4,13.3-0.8
	c4.2-0.4,8.4-0.7,12.1-1.5l0.8-1.9l-0.4-3l-1.9-0.4c-4.2,0.4-8,0.8-11.4,1.2c-3,0.4-6,0.4-8.7,0.4c-17.9,0-31.9-3.4-42.5-10.2
	c-10.2-6.8-15.5-16-15.5-27.3c0-12.9,5.7-22.8,16.7-30.4c11-7.6,26.1-11.4,45.1-11.4c20.9,0,36.8,3.8,47,11.8
	c10.6,8,16,19.7,16,35.3c0,1.9,0,4.6-0.4,7.6c0,3,0,6-0.4,9.9l-11.4,132L969.9,1635.2z M1112.2,1506.6L1112.2,1506.6
	c1.9,0,3.4-1.1,4.1-3c1.2-1.9,1.5-4.9,1.5-9.5c0-1.9-1.1-3-3.8-4.2c-1.1-0.4-1.5-0.7-2.2-1.1c-0.8-0.4-1.9-1.2-3.8-2.7
	c-1.9-1.2-3.4-1.9-4.6-1.9c-0.7,0-2.3,1.9-4.6,5.7c-1.9,3.8-3,6.5-3,8c0,1.9,1.9,3.8,5.3,5.7
	C1105,1505.5,1108.4,1506.6,1112.2,1506.6z M1151.6,1590.4c13.3-3,24.3-8.7,32.6-17.1c8.7-8.7,12.9-17.8,12.9-27.7
	c0-3.4-0.8-6.1-2.3-8c-1.9-1.9-4.2-2.7-7.2-2.7c-7.2,0-14.4,5.3-21.6,16C1158.8,1561.2,1154.3,1574.5,1151.6,1590.4L1151.6,1590.4z
	 M495.1,1548.8c-11.4,19.3-22,34.1-31.9,45.2c-10.2,11.3-18.9,17.4-26.1,18.6c3-2.7,4.9-5.7,6.4-8.3c1.2-2.7,1.9-5.7,1.9-8.4
	c0-3.8-1.1-7.6-3.4-11.3c-2.3-3.4-6.1-7.2-11-11.4c-1.9-1.5-4.6-3.4-8-6c-9.9-6.8-14.8-12.9-14.8-18.2c0-3.8,1.9-7.2,5.3-9.9
	c3.4-2.7,7.6-3.8,12.9-3.8c3.8,0,6.5,0.7,8.7,2.2c1.9,1.5,3,3.4,3,5.7c0,2.3-0.4,4.1-1.1,6c-1.2,1.5-2.3,3.4-4.2,4.6l1.1,1.5
	c5.3-0.4,9.9-1.9,13.7-4.6c3.8-3,5.7-6.1,5.7-9.5c0-4.2-1.5-7.2-4.9-9.5c-3-1.9-8-3-14.8-3c-11.3,0-21.2,3-29.2,8.7
	c-7.6,4.9-11.3,10.6-12.5,16.7c-15.2,20.9-26.9,36-35.6,45.9c-9.5,10.2-16,15.6-20.1,15.6c-1.5,0-2.7-0.4-3.8-1.5
	c-1.2-0.7-1.5-1.9-1.5-3c0-3.8,3-14.4,9.1-31.9c1.1-2.7,1.9-4.6,2.3-6.1c2.7-8,4.6-14,5.7-18.2c1.2-3.8,1.5-7.2,1.5-9.5
	c0-4.6-1.5-8-4.6-11c-3-3-6.5-4.6-11-4.6c-6.8,0-15.2,5.3-25.4,16c-10.2,10.6-22.4,26.9-36.8,48.6l19-60.3c0.4,0,0.4-0.4,0.4-0.7
	c0,0,0-0.4,0-1.2c0-0.4-0.4-1.1-0.8-1.5c-0.4-0.4-0.7-0.4-1.5-0.4c-0.4,0-0.8,0-1.2,0c-0.4,0-0.7,0-0.7,0l-9.5,2.3
	c-1.5,0.4-3,1.2-3.8,1.9c-0.8,1.2-1.9,3-2.7,5.7l-25,80.4l0,0c0,0.7,0,1.1-0.4,1.5c0,0.8,0,1.5,0,2.3s0.4,1.5,0.7,1.9
	c0.4,0.4,0.8,0.7,1.5,0.7h1.5l10.2-1.9c2.7-0.7,4.9-3,6.4-6.8c0.8-1.9,1.2-3.1,1.5-4.2c2.3-4.6,4.9-9.9,8-15.2
	c3.4-5.3,7.2-11.4,11.4-17.4c9.1-12.6,17.1-22.4,23.9-29.6c7.2-7.2,12.1-10.6,15.5-10.6c1.2,0,2.3,0.4,3,1.1
	c1.2,0.8,1.5,1.9,1.5,3.1c0,0.7-0.4,3-1.5,6.4c-1.1,3.4-2.7,8.7-4.9,16.3c-1.1,3.4-2.7,8-4.9,13.7c-4.9,15.2-7.6,24.6-7.6,28
	c0,5.3,1.5,9.1,4.6,12.5c3.4,3.4,7.2,4.9,11.8,4.9c5.7,0,12.1-3,19.3-9.5c7.2-6,16.3-16.6,27.7-31.9c1.2-1.5,3.1-3.4,4.9-6.4
	c5.7-7.2,9.9-13.3,12.5-17.9c0.4,1.9,1.5,3.8,3.1,5.7c2.3,3.4,8,8.3,16.3,14.8c7.6,5.3,12.1,9.5,14,12.5c1.9,3,3,6,3,9.5
	c0,4.9-2.3,9.5-6.8,12.9c-4.2,3.4-9.9,4.9-16.7,4.9c-4.6,0-8-0.7-10.6-2.7c-2.6-1.9-4.1-4.2-4.1-6.8c0-1.9,0.4-3.8,1.5-5.7
	c1.2-1.5,2.3-3,4.2-4.2v-0.7c-1.1-0.7-2.7-1.2-3.8-1.2c-1.5-0.4-2.7-0.4-4.1-0.4c-4.6,0-8.4,1.2-11.4,3.4c-3,2.3-4.6,5.3-4.6,8.7
	c0,4.6,2.7,8.4,7.6,11.4c4.9,2.7,11.8,4.2,19.7,4.2c4.2,0,8.4-0.4,12.6-1.5c4.1-1.1,8.7-2.7,13.3-4.9l0,0
	c9.9-0.7,19.3-4.6,28.1-11.4c8.7-6.4,18.6-16.7,28.8-31.1c1.9-3.1,3.8-5.7,5.3-8L481,1592l0,0c-1.2,4.2-2.3,7.6-2.6,10.6
	c-0.8,3-1.2,5.3-1.2,7.2c0,5.3,1.5,9.5,4.6,12.5c2.6,3.1,6.8,4.6,11.8,4.6c7.6,0,15.5-3.8,24.3-11c6.5-5.3,14-12.9,22.4-23.5
	c0,2.3-0.4,4.6-0.4,6.8c0,8.7,2.3,15.9,6.5,20.8c4.1,4.9,9.9,7.6,17.1,7.6c6,0,12.5-3.4,18.9-9.9c6.5-6.4,13.7-16.6,21.6-30.7l0,0
	c-2.3,6.5-3.8,12.1-4.6,16.7c-1.1,4.1-1.5,8.3-1.5,11.3c0,3.8,1.1,6.8,3.8,9.1c2.3,2.3,5.7,3.4,9.5,3.4c6.5,0,12.9-3.1,19.7-8.7
	c6.5-5.7,16-16.3,27.3-31.9c-0.4,2.3-0.4,4.6-0.4,6.8c0,10.6,3.1,18.9,8.7,25.4c6,6.5,14,9.5,23.9,9.5c12.1,0,25-4.6,38.3-13.7
	c12.9-8.7,25.4-21.6,37.5-38.3c4.2-5.7,7.2-10.7,9.1-14.4c1.9-4.2,3-7.2,3-9.9c0-0.8,0-1.5-0.4-1.9c0-0.7,0-1.2-0.4-1.5l0,0
	c-13.7,22.4-27.3,40.2-41.7,52.7c-14,12.5-27,19-38.7,19c-6.5,0-11.4-2.3-15.2-6.5c-3.8-4.2-5.7-9.9-5.7-17.4
	c18.6-5.7,33.8-12.9,44.7-22c11.4-9.1,17.1-18.2,17.1-27.3c0-5.7-2.2-10.3-6.4-13.7c-4.2-3.8-9.9-5.7-16.3-5.7
	c-6.8,0-13.3,1.9-20.1,5.7c-7.2,3.8-13.3,8.7-19,15.2c-5.7,6.8-9.9,13.7-12.9,20.9c-12.5,16.7-21.6,28.5-27.7,35.3
	c-8,9.1-13.6,13.7-17.1,13.7c-1.9,0-3-0.7-3.8-1.9c-0.8-1.1-1.2-3-1.2-5.7c0-1.2,0-2.3,0.4-3.8c0.4-1.5,1.2-3.8,1.9-7.2l39.9-147.1
	c0-0.4,0-0.7,0.4-1.2c0-1.1,0-1.5,0-1.9c0-0.8,0-1.5-0.4-1.9c-0.4-0.4-1.2-0.7-1.9-0.7h-0.7l-10.6,1.5c-2.3,0.4-4.2,2.3-4.9,5.7
	c0,0.4,0,0.4,0,0.4l-20.1,78.1c-3-1.2-5.7-1.9-8-2.7c-2.7-0.4-4.9-0.8-6.8-0.8c-6.5,0-13.3,1.9-20.5,5.3
	c-6.8,3.4-13.6,8.3-19.7,14.8c-7.6,7.6-13.3,15.5-17.1,23.9c-0.7,1.9-1.5,3.8-1.9,5.3c-6.8,9.1-12.9,16.6-18.6,22.4
	c-10.7,11.8-18.6,17.4-24.3,17.4c-1.9,0-3.8-0.7-4.9-2.3c-1.2-1.1-1.9-3.4-1.9-5.7c0-1.5,0.4-3.8,1.2-6.8c0.7-3,1.9-6.8,3.4-11.4
	l19-59.2c0.4,0,0.4-0.4,0.4-0.4c0-0.4,0-0.8,0-1.2c0-0.7,0-1.1-0.4-1.5c-0.4-0.4-1.2-0.4-1.5-0.4h-1.1l-10.3,1.9
	c-1.5,0.4-2.7,0.8-3.4,1.5c-0.7,0.7-1.5,1.9-2.3,3.4L495.1,1548.8z M1138,1571.1c-9.1,12.5-17.5,22.8-24.3,30.4
	c-10.7,11.8-18.6,17.4-24.3,17.4c-1.9,0-3.8-0.7-4.9-2.3c-1.2-1.1-1.9-3.4-1.9-5.7c0-1.5,0.4-3.8,1.1-6.8c0.8-3,1.9-6.8,3.4-11.4
	l19-59.2c0.4,0,0.4-0.4,0.4-0.4c0-0.4,0-0.8,0-1.2c0-0.7,0-1.1-0.4-1.5c-0.4-0.4-1.2-0.4-1.5-0.4h-1.2l-10.2,1.9
	c-1.5,0.4-2.7,0.8-3.4,1.5c-0.7,0.7-1.5,1.9-2.3,3.4l-17.8,55l0,0c-1.2,4.2-2.3,7.6-2.7,10.6c-0.7,3-1.1,5.3-1.1,7.2
	c0,5.3,1.5,9.5,4.6,12.5c2.7,3.1,6.8,4.6,11.8,4.6c7.6,0,15.5-3.8,24.3-11c7.6-6.1,16.7-16,26.9-29.2c-0.4,2.7-0.4,4.9-0.4,7.2
	c0,10.6,3,18.9,8.7,25.4c6.1,6.5,14,9.5,23.9,9.5c12.1,0,25-4.6,38.3-13.7c12.9-8.7,25.4-21.6,37.5-38.3c1.2-1.5,1.9-3.1,3-4.2
	l-5.3,18.6c-0.7,3.4-1.5,6.8-2.3,9.9c-0.4,3-0.7,5.7-0.7,7.6c0,6,1.5,10.6,4.2,14c3,3.4,6.8,4.9,12.1,4.9c7.6,0,16.3-4.9,25.4-14.4
	c9.1-9.5,19.7-24.3,31.5-44l0,0c-3.4,12.1-5.3,20.8-6.5,26.1c-1.1,5.3-1.5,9.1-1.5,12.1c0,6.5,1.5,11.8,4.6,15.2
	c3.4,3.8,7.6,5.7,13.3,5.7c5.7,0,12.5-2.3,19.7-7.2c7.2-4.9,15.6-12.9,25.4-23.2c1.1,4.6,3.4,8,6,10.7c3,2.3,6.5,3.4,10.7,3.4
	c4.9,0,9.9-2.3,15.5-6.8c5.3-4.6,12.1-12.5,20.5-23.9c6.1-8.4,10.3-14.4,12.1-17.9c1.9-3.8,2.7-6.8,2.7-9.1c0-1.1,0-1.9,0-2.7
	c-0.4-0.4-0.4-0.7-0.4-1.1c-14,21.3-24.3,35.7-31.5,43.6c-7.6,8-13.6,11.8-18.6,11.8c-3.4,0-6.1-1.2-8.4-3.8
	c-1.9-2.3-3.4-6-3.8-10.2c6-9.1,10.6-17.4,13.6-25c2.7-7.6,4.2-14.8,4.2-22c0-3.8-0.4-6.5-0.7-8.4c-0.4-2.3-1.2-3.8-2.3-5.3h-1.2
	c-6.8,4.9-11.8,11.8-15.5,20.1c-3.8,8.7-5.7,17.9-5.7,27.3c0,1.9,0.4,5.7,1.1,10.6c0,0.7,0,1.5,0,1.9c-7.6,9.1-14,15.9-20.1,20.5
	c-6.1,4.9-11.4,7.2-15.6,7.2c-2.7,0-4.9-1.2-6.8-3c-1.5-1.9-2.3-4.9-2.3-8.7c0-2.7,0.4-6,1.1-9.9c0.4-4.2,1.5-8,2.7-12.1l14-48.9
	c0.4-0.7,0.4-1.5,0.4-1.9c0-0.7,0.4-1.1,0.4-1.9c0-0.7-0.4-1.1-0.4-1.1c-0.4-0.4-0.7-0.4-1.1-0.4h-1.2l-10.6,1.9
	c-3.4,0.7-6.8,5.7-10.7,14.4c-3.4,8.7-6.8,15.6-9.9,21.3c-8.7,15.2-16.7,26.9-23.9,35.7c-7.6,8.7-13.7,12.9-18.2,12.9
	c-2.3,0-4.2-0.7-5.7-2.7c-1.5-1.5-2.3-3.8-2.3-6.5c0-1.9,0.4-4.5,0.7-7.2c0.7-3,1.5-6,2.3-9.1l16-56.9c0,0,0-0.7,0.4-1.5
	c0-0.4,0.4-1.2,0.4-1.2c0-0.7-0.4-0.7-0.4-1.1c-0.4,0-0.8-0.4-1.2-0.4c-0.4,0-0.7,0-0.7,0.4c-0.4,0-0.7,0-1.1,0l-11.4,1.5
	c-1.2,0.4-1.9,0.8-2.7,1.2c-0.4,0.7-0.8,1.5-1.2,3l-4.9,18.2c-12.1,19.7-24.6,35.6-37.9,47c-14,12.5-26.9,19-38.7,19
	c-6.5,0-11.4-2.3-15.2-6.5c-3.8-4.2-5.7-9.9-5.7-17.4c18.6-5.7,33.8-12.9,44.8-22c11.3-9.1,17.1-18.2,17.1-27.3
	c0-5.7-2.3-10.3-6.5-13.7c-4.2-3.8-9.9-5.7-16.3-5.7c-6.8,0-13.3,1.9-20.1,5.7c-7.2,3.8-13.3,8.7-19,15.2
	C1145.6,1556.4,1141,1563.6,1138,1571.1z"/>
<path fill-rule="evenodd" clip-rule="evenodd" fill="#FFFFFF" d="M283.6,1453.4h-2.1c-0.2-0.7-0.6-1.6-1-2.7c-0.5-1-1-1.9-1.6-2.9
	c-0.7-0.9-1.3-1.7-2-2.4c-0.7-0.7-1.4-1.1-2.1-1.2c-0.7-0.1-1.4-0.1-2.4-0.2c-0.9-0.1-1.8-0.1-2.6-0.1H268v34.8
	c0,0.7,0.1,1.3,0.4,1.8c0.4,0.6,0.8,1,1.6,1.3c0.3,0.2,1.1,0.3,2.3,0.6c1.2,0.3,2.1,0.4,2.7,0.4v2.1h-20.5v-2.1
	c0.5-0.1,1.4-0.1,2.6-0.3c1.2-0.1,2-0.3,2.4-0.4c0.7-0.3,1.2-0.7,1.5-1.2c0.3-0.5,0.5-1.1,0.5-2V1444h-1.7c-0.7,0-1.4,0-2.4,0.1
	c-0.9,0-1.9,0-2.7,0.2c-0.7,0.1-1.4,0.5-2.1,1.2c-0.7,0.7-1.3,1.5-2,2.4c-0.6,1-1.2,2-1.6,3c-0.5,1-0.8,1.9-1,2.6h-2.1v-11.8h37.9
	V1453.4z M319,1485h-14.8v-2c0.5-0.1,1-0.1,1.5-0.1c0.6,0,1.1-0.1,1.4-0.2c0.6-0.2,1-0.5,1.3-1c0.2-0.5,0.4-1.1,0.4-1.8v-15.5
	c0-2.2-0.5-3.9-1.5-5c-1-1.2-2.2-1.8-3.7-1.8c-1.1,0-2,0.2-3,0.6c-0.9,0.3-1.8,0.7-2.4,1.2c-0.7,0.5-1.3,1-1.6,1.5
	c-0.4,0.5-0.7,0.9-0.9,1.3v17.4c0,0.7,0.1,1.3,0.4,1.7c0.3,0.5,0.7,0.8,1.3,1.1c0.5,0.2,1,0.3,1.4,0.5c0.5,0.1,1,0.1,1.5,0.2v2
	h-14.8v-2c0.5-0.1,0.9-0.1,1.5-0.1c0.5-0.1,0.9-0.1,1.3-0.2c0.6-0.2,0.9-0.5,1.3-1c0.2-0.5,0.4-1,0.4-1.8v-35.1
	c0-0.7-0.1-1.4-0.5-2.1c-0.3-0.7-0.7-1.2-1.3-1.5c-0.4-0.3-1-0.5-1.9-0.6c-0.9-0.1-1.7-0.1-2.3-0.2v-2l11.3-0.7l0.4,0.5v21h0.1
	c0.7-0.7,1.3-1.2,1.8-1.8c0.6-0.5,1.3-1.1,2.2-1.7c0.7-0.5,1.7-0.9,2.7-1.2c1.1-0.3,2.3-0.5,3.6-0.5c2.6,0,4.7,0.9,6.2,2.6
	c1.4,1.7,2.1,4.2,2.1,7.3v15.7c0,0.7,0.1,1.3,0.4,1.8c0.3,0.4,0.7,0.7,1.3,1c0.5,0.2,0.8,0.3,1.3,0.4c0.3,0.1,0.9,0.1,1.5,0.2V1485z
	 M349.8,1478c-1.3,2.4-3,4.3-5.1,5.7c-2.1,1.4-4.5,2.1-7.3,2.1c-2.5,0-4.6-0.4-6.4-1.3c-1.9-0.9-3.3-2-4.6-3.5
	c-1.2-1.5-2-3.2-2.6-5.1c-0.6-2-0.9-4-0.9-6.3c0-2,0.4-3.8,1-5.7c0.6-1.9,1.5-3.6,2.7-5.1c1.1-1.5,2.6-2.6,4.3-3.5
	c1.8-0.9,3.7-1.3,5.8-1.3c2.2,0,4.1,0.3,5.7,1c1.5,0.7,2.8,1.7,3.8,2.9c1,1.1,1.6,2.5,2.1,4c0.5,1.5,0.7,3.2,0.7,5v2h-20
	c0,2,0.2,3.8,0.5,5.3c0.4,1.6,1,3,1.8,4.3c0.8,1.2,1.9,2.1,3.2,2.8c1.3,0.7,2.8,1,4.6,1c1.8,0,3.4-0.4,4.7-1.3
	c1.3-0.9,2.6-2.4,3.8-4.6L349.8,1478z M343,1466.5c0-1.2-0.1-2.4-0.3-3.7c-0.2-1.3-0.6-2.4-1-3.3c-0.5-1-1.1-1.7-1.9-2.3
	c-0.8-0.6-1.9-0.8-3.2-0.8c-2.1,0-3.9,0.8-5.3,2.7c-1.4,1.8-2.2,4.3-2.3,7.4H343z"/>
<path fill-rule="evenodd" clip-rule="evenodd" fill="#FFFFFF" d="M84.7,1842.9v-37.7c0-1.9-0.4-3.2-1.1-4c-0.7-0.8-2-1.2-3.7-1.3
	l-3.2-0.1c-1.3-0.1-2-0.6-2-1.4c0-0.6,0.1-1,0.3-1.2c0.2-0.1,0.7-0.2,1.6-0.2c0.2,0,0.7,0,1.6,0.1c4,0.1,7.8,0.2,11.4,0.2
	c3.5,0,7.2-0.1,11-0.2c1,0,1.6-0.1,1.8-0.1c0.8,0,1.4,0.1,1.6,0.2c0.2,0.1,0.3,0.6,0.3,1.2c0,0.9-0.7,1.3-1.9,1.4l0,0l-3.4,0.1
	c-1.7,0.1-2.9,0.5-3.6,1.3c-0.7,0.8-1.1,2.1-1.1,4v37.7c0,1.9,0.4,3.2,1.1,4c0.7,0.8,2,1.2,3.7,1.3l3.3,0.1c0,0,0.2,0,0.3,0
	c1.1,0,1.6,0.5,1.6,1.3c0,0.7-0.1,1.1-0.3,1.3c-0.2,0.1-0.7,0.2-1.6,0.2c-0.2,0-0.8,0-1.8-0.1c-3.8-0.1-7.5-0.2-11-0.2
	c-3.7,0-7.5,0.1-11.5,0.3c-0.8,0-1.4,0-1.6,0c-0.8,0-1.3-0.1-1.5-0.2c-0.2-0.2-0.4-0.6-0.4-1.3c0-0.8,0.6-1.3,1.7-1.3
	c0.1,0,0.2,0,0.3,0l3.3-0.1c1.7-0.1,2.9-0.5,3.7-1.3C84.4,1846,84.7,1844.7,84.7,1842.9L84.7,1842.9z M136.9,1834.4v-31.6
	c0-0.7-0.5-1.4-1.5-2c-1-0.7-2.1-0.9-3.4-1l-3.3-0.1c-0.8,0-1.3-0.1-1.6-0.3c-0.2-0.2-0.4-0.6-0.4-1.1c0-0.7,0.1-1,0.3-1.2
	c0.2-0.1,0.7-0.2,1.6-0.2c0.1,0,1.1,0,2.9,0.1c1.8,0.1,3.5,0.1,5.2,0.1c0.7,0,1.7,0,3.1-0.1c1.3,0,2.4-0.1,3.2-0.1
	c0.7,0,1.3,0,1.6,0.1c0.3,0.1,0.7,0.3,0.9,0.5c0,0,0.9,1,2.7,2.8c1.7,1.8,3.6,3.6,5.6,5.6l37.1,36l-0.7-30c0-0.2,0-0.6,0-1
	c-0.2-7.3-1.6-10.9-4.4-10.9l-3.5-0.1c-0.7,0-1.1-0.1-1.3-0.3c-0.2-0.2-0.4-0.6-0.4-1.2c0-0.7,0.1-1.1,0.3-1.2
	c0.2-0.1,0.8-0.2,1.8-0.2c0.1,0,0.5,0,1.1,0c3.1,0.2,6.1,0.3,9.1,0.3c3,0,6-0.1,9-0.3c0.7,0,1,0,1.1,0c1,0,1.6,0.1,1.8,0.2
	c0.2,0.1,0.3,0.6,0.3,1.2c0,0.6-0.1,1-0.3,1.2c-0.2,0.1-0.7,0.3-1.3,0.3l-2.7,0.1c-2.2,0-3.8,0.9-4.6,2.5c-0.8,1.6-1.3,5.3-1.3,11.2
	v27.8c0,2.7,0.1,5.3,0.3,7.7c0,0.4,0,0.6,0,0.7c0,0.5-0.2,0.9-0.4,1.1c-0.2,0.3-0.5,0.4-0.9,0.4c-0.5,0-1,0-1.7-0.1
	c-0.7,0-1.1-0.1-1.3-0.1c0,0-0.2,0-0.5,0c-0.3,0-0.5,0-0.7,0c-0.9,0-1.6-0.2-1.9-0.7c-0.1-0.1-0.2-0.2-0.3-0.4c0,0-0.2-0.3-0.7-0.8
	c-2.5-2.5-4.9-4.9-7.4-7.4l-38.3-36.9l0.9,31.3c0,0.4,0,0.8,0,1.5c0.2,6.8,1.6,10.3,4.4,10.5l3.3,0.1h0.1c1.1,0.1,1.6,0.5,1.6,1.3
	c0,0.7-0.1,1.1-0.4,1.3c-0.2,0.1-0.8,0.2-1.7,0.2c-0.1,0-0.5,0-1.1,0c-3-0.2-6-0.3-9.1-0.3c-3,0-6,0.1-9,0.3c-0.6,0-0.9,0-1.1,0
	c-0.9,0-1.4-0.1-1.7-0.2c-0.2-0.1-0.3-0.6-0.3-1.3c0-0.8,0.5-1.3,1.5-1.3l2.7-0.1c2.3-0.1,3.8-1,4.6-2.6
	C136.5,1844,136.9,1840.3,136.9,1834.4L136.9,1834.4z M276.6,1842.9V1800h-9.8c-3.7,0-6.2,0.4-7.5,1.3c-1.4,0.9-2.5,2.8-3.3,5.6
	c-0.1,0.6-0.3,1.2-0.4,1.9c-0.2,1.2-1,1.8-2.4,1.8c-1.3,0-2.1,0-2.6-0.2c-0.5-0.1-0.7-0.3-0.7-0.6c0,0,0-0.2,0-0.5
	c0.2-1.9,0.3-3.8,0.3-5.9c0-1.5-0.1-3.1-0.4-4.8c0-0.4,0-0.7,0-0.8c0-0.5,0.1-0.8,0.3-0.9c0.2-0.1,0.8-0.2,1.7-0.2
	c0.3,0,3.7,0.1,10.3,0.2c6.6,0.1,13.1,0.2,19.5,0.2c6,0,12.4-0.1,18.8-0.2c6.5-0.1,10-0.2,10.4-0.2c0.9,0,1.5,0,1.7,0.2
	c0.2,0.1,0.3,0.4,0.3,0.9c0,0.1,0,0.4-0.1,0.8c-0.2,1.7-0.3,3.3-0.3,4.8c0,2,0.1,4,0.3,5.8c0,0.3,0,0.5,0,0.6c0,0.3-0.2,0.5-0.7,0.6
	c-0.5,0.1-1.3,0.2-2.5,0.2c-1.3,0-2.1-0.6-2.3-1.7c-0.1-0.7-0.2-1.4-0.4-2c-0.8-2.8-1.9-4.7-3.3-5.6c-1.4-0.9-3.9-1.3-7.6-1.3h-10
	v42.8c0,1.9,0.4,3.3,1.2,4c0.8,0.8,2.1,1.2,4,1.3l3.3,0.1c0,0,0.1,0,0.3,0c1.2,0,1.8,0.5,1.8,1.3c0,0.6-0.1,1-0.4,1.2
	c-0.3,0.2-0.8,0.3-1.6,0.3c-0.2,0-0.7,0-1.5,0c-4-0.2-7.9-0.3-11.8-0.3c-4,0-8,0.1-12,0.3c-0.7,0-1.2,0-1.4,0
	c-0.8,0-1.3-0.1-1.5-0.3c-0.2-0.2-0.4-0.6-0.4-1.2c0-0.8,0.6-1.3,1.8-1.3c0.1,0,0.2,0,0.3,0l3.4-0.1c1.9-0.1,3.1-0.5,3.9-1.3
	C276.2,1846.2,276.6,1844.8,276.6,1842.9L276.6,1842.9z M362.8,1842.9v-37.8c0-1.9-0.4-3.2-1.1-4c-0.7-0.7-2-1.2-3.7-1.3l-3.3-0.2h0
	c-1.3-0.1-2-0.6-2-1.4c0-0.6,0.1-1,0.3-1.2c0.2-0.1,0.8-0.2,1.7-0.2c0.1,0,0.7,0,1.7,0c6.7,0.2,13.7,0.3,21.1,0.3
	c6.4,0,12.9-0.1,19.5-0.2c6.7-0.1,10.2-0.2,10.6-0.2c0.8,0,1.4,0.1,1.6,0.2c0.2,0.1,0.3,0.4,0.3,0.9c0,0.1,0,0.4-0.1,0.8
	c-0.1,1.7-0.2,3.3-0.2,4.7c0,2,0,4,0.2,5.9c0,0.3,0,0.5,0,0.5c0,0.3-0.2,0.5-0.7,0.6c-0.5,0.1-1.3,0.2-2.7,0.2
	c-1.3,0-2.2-0.8-2.4-2.3c-0.2-1.4-0.5-2.7-0.9-3.7c-0.6-1.8-1.8-3.1-3.6-3.8c-1.8-0.7-6-1-12.4-1h-2c-1.3,0-2.9,0-5,0
	c-2,0-4.4,0.1-7.1,0.2c-0.1,0.8-0.2,1.5-0.3,2.2c0,0.7-0.1,1.3-0.1,1.9v17.1h8.4c4,0,6.5-0.3,7.6-0.8c1.1-0.6,1.9-1.8,2.4-3.8
	c0.1-0.5,0.2-1,0.2-1.3c0-0.4,0.1-0.7,0.1-1v-0.1c0-0.6,0.1-0.8,0.4-1c0.3-0.1,1-0.1,2.1-0.1c0.9,0,1.5,0,1.8,0.1
	c0.3,0,0.5,0.2,0.5,0.4c0,0.1,0,0.3,0,0.7c-0.2,2.6-0.4,5.4-0.4,8.2c0,2.9,0.1,5.6,0.4,8.3c0,0.4,0,0.6,0,0.7c0,0.2-0.1,0.3-0.5,0.4
	c-0.3,0-0.9,0.1-1.9,0.1c-1.1,0-1.7,0-2-0.1c-0.2,0-0.4-0.7-0.6-1.8c-0.3-2.7-1.1-4.5-2.2-5.2s-3.9-1.1-8.1-1.1h-8.4v24.1h19.4
	c3.8,0,6.6-0.5,8.2-1.5c1.7-1,2.8-2.9,3.4-5.6c0.2-0.9,0.4-2,0.6-3.3c0.2-1.7,1.5-2.6,3.9-2.6c0.7,0,1.3,0.1,1.6,0.3
	c0.3,0.2,0.4,0.6,0.4,1.1v12.5c0,1-0.1,1.6-0.5,1.9c-0.3,0.2-0.9,0.3-1.9,0.3c-0.3,0-1.1,0-2.5,0c-9.3-0.2-18.8-0.3-28.6-0.3
	c-7,0-13.6,0.1-20,0.3c-0.8,0-1.3,0-1.5,0c-0.8,0-1.4-0.1-1.6-0.3c-0.2-0.2-0.4-0.6-0.4-1.2c0-0.8,0.6-1.3,1.6-1.3
	c0.2,0,0.3,0,0.4,0l3.4-0.1c1.7-0.1,2.9-0.5,3.6-1.3C362.5,1846.1,362.8,1844.7,362.8,1842.9L362.8,1842.9z M467.5,1821
	c1.5,0.1,2.8,0.2,4,0.2c1.2,0,2.1,0,2.9,0c7.5,0,12.8-0.8,15.8-2.6c3-1.7,4.6-4.6,4.6-8.6c0-4-1.2-6.7-3.5-8.3
	c-2.4-1.5-6.6-2.3-12.9-2.3c-1.3,0-2.8,0-4.5,0.1c-1.6,0-3.6,0.1-6,0.3c-0.1,0.8-0.2,1.5-0.2,2.1c0,0.6-0.1,1-0.1,1.3V1821z
	 M458.2,1842.9v-37.7c0-1.9-0.4-3.2-1.1-4c-0.7-0.8-2-1.2-3.7-1.3l-3.3-0.1h0c-1.3-0.1-2-0.6-2-1.4c0-0.6,0.1-1,0.3-1.2
	c0.2-0.1,0.8-0.2,1.7-0.2c0.2,0,0.8,0,1.8,0.1c3.8,0.1,7.5,0.2,11,0.2c2.8,0,6.8-0.1,11.9-0.2c5.1-0.1,8.7-0.2,11-0.2
	c7.2,0,12.2,0.9,15,2.7c2.8,1.8,4.2,4.8,4.2,9.2c0,4.4-1.4,7.6-4.3,9.9c-2.8,2.2-7.5,3.6-14,4.3l12.5,14.5c3.3,3.8,5.6,6.4,7.2,7.7
	c1.5,1.4,3,2.4,4.4,3c0.6,0.2,1.4,0.4,2.7,0.5c1.2,0,1.8,0.4,1.9,1c0,0.7-0.1,1.3-0.4,1.5c-0.2,0.2-0.7,0.3-1.5,0.3
	c-0.2,0-1,0-2.1-0.2c-1.2-0.1-2.3-0.1-3.3-0.1c-0.6,0-1.4,0-2.7,0.1c-1.2,0.1-2.2,0.2-2.8,0.2c-1,0-1.8,0-2.2-0.1
	c-0.4-0.1-0.7-0.3-0.9-0.5c0,0,0,0-0.1-0.2c-1.8-2.3-4-4.8-6.4-7.7l-9-10.7c-1.6-1.9-3-3.4-4.3-4.7c-1.3-1.3-2.2-2-2.7-2.3
	c-1.3-0.7-4.2-1.1-8.6-1.2c-0.3,0-0.5,0-0.6,0v19.2c0,1.9,0.4,3.2,1.1,4c0.7,0.8,2,1.2,3.7,1.3l3.2,0.1c0,0,0.1,0,0.3,0
	c1.1,0,1.7,0.5,1.7,1.3c0,0.7-0.1,1.1-0.3,1.3c-0.2,0.1-0.7,0.2-1.5,0.2c-0.2,0-0.8,0-1.7,0c-3.9-0.2-7.5-0.3-11.1-0.3
	c-3.5,0-7.2,0.1-11,0.2c-0.9,0-1.5,0.1-1.8,0.1c-0.8,0-1.4-0.1-1.6-0.3c-0.2-0.2-0.4-0.6-0.4-1.2c0-0.8,0.6-1.3,1.6-1.3
	c0.2,0,0.3,0,0.4,0l3.4-0.1c1.7-0.1,2.9-0.5,3.7-1.3C457.8,1846,458.2,1844.7,458.2,1842.9L458.2,1842.9z M563.1,1842.9v-37.7
	c0-1.9-0.4-3.2-1.1-4c-0.7-0.8-2-1.2-3.7-1.3l-3.2-0.1c-1.3-0.1-2-0.6-2-1.4c0-0.6,0.1-1,0.3-1.2c0.2-0.1,0.7-0.2,1.6-0.2
	c0.2,0,0.7,0,1.6,0.1c4,0.1,7.8,0.2,11.4,0.2c3.5,0,7.2-0.1,11-0.2c1,0,1.6-0.1,1.8-0.1c0.8,0,1.4,0.1,1.6,0.2
	c0.2,0.1,0.3,0.6,0.3,1.2c0,0.9-0.7,1.3-1.9,1.4l0,0l-3.4,0.1c-1.7,0.1-2.9,0.5-3.6,1.3c-0.7,0.8-1.1,2.1-1.1,4v37.7
	c0,1.9,0.4,3.2,1.1,4c0.7,0.8,2,1.2,3.7,1.3l3.3,0.1c0,0,0.2,0,0.3,0c1.1,0,1.6,0.5,1.6,1.3c0,0.7-0.1,1.1-0.3,1.3
	c-0.2,0.1-0.7,0.2-1.6,0.2c-0.2,0-0.8,0-1.8-0.1c-3.8-0.1-7.5-0.2-11-0.2c-3.7,0-7.5,0.1-11.5,0.3c-0.8,0-1.4,0-1.6,0
	c-0.8,0-1.3-0.1-1.5-0.2c-0.2-0.2-0.4-0.6-0.4-1.3c0-0.8,0.6-1.3,1.7-1.3c0.1,0,0.2,0,0.3,0l3.3-0.1c1.7-0.1,2.9-0.5,3.7-1.3
	C562.7,1846,563.1,1844.7,563.1,1842.9L563.1,1842.9z M618.9,1823.9c0,9.1,2,15.6,5.9,19.6c4,4,10.4,6,19.3,6c8.8,0,15.3-2,19.2-6
	c4-4,5.9-10.5,5.9-19.5c0-9.1-2-15.6-5.9-19.6c-3.9-4-10.3-6-19.2-6c-8.8,0-15.2,2-19.2,6C620.9,1808.5,618.9,1815,618.9,1823.9
	L618.9,1823.9z M608.4,1824c0-9.9,2.9-17.1,8.7-21.6c5.8-4.5,15.1-6.7,28-6.7c12.2,0,21,2.2,26.5,6.7c5.4,4.5,8.1,11.7,8.1,21.6
	c0,9.9-3,17-8.9,21.5c-6,4.5-15.4,6.7-28.4,6.7c-12,0-20.6-2.2-26-6.7C611.1,1841.1,608.4,1833.9,608.4,1824L608.4,1824z
	 M747.2,1821c1.5,0.1,2.8,0.2,4,0.2c1.2,0,2.1,0,2.9,0c7.5,0,12.8-0.8,15.8-2.6c3-1.7,4.6-4.6,4.6-8.6c0-4-1.2-6.7-3.5-8.3
	c-2.4-1.5-6.7-2.3-12.9-2.3c-1.3,0-2.8,0-4.5,0.1c-1.6,0-3.6,0.1-6,0.3c-0.1,0.8-0.2,1.5-0.2,2.1c0,0.6-0.1,1-0.1,1.3V1821z
	 M737.9,1842.9v-37.7c0-1.9-0.4-3.2-1.1-4c-0.7-0.8-2-1.2-3.7-1.3l-3.3-0.1h0c-1.3-0.1-2-0.6-2-1.4c0-0.6,0.1-1,0.3-1.2
	c0.2-0.1,0.8-0.2,1.7-0.2c0.2,0,0.8,0,1.8,0.1c3.8,0.1,7.5,0.2,11,0.2c2.8,0,6.8-0.1,11.9-0.2c5.1-0.1,8.7-0.2,11-0.2
	c7.2,0,12.2,0.9,15,2.7c2.8,1.8,4.2,4.8,4.2,9.2c0,4.4-1.4,7.6-4.3,9.9c-2.8,2.2-7.5,3.6-14,4.3l12.5,14.5c3.3,3.8,5.6,6.4,7.2,7.7
	c1.5,1.4,3,2.4,4.4,3c0.6,0.2,1.4,0.4,2.7,0.5c1.2,0,1.8,0.4,1.9,1c0,0.7-0.1,1.3-0.4,1.5c-0.2,0.2-0.7,0.3-1.5,0.3
	c-0.2,0-1,0-2.1-0.2c-1.2-0.1-2.3-0.1-3.3-0.1c-0.6,0-1.4,0-2.7,0.1c-1.2,0.1-2.2,0.2-2.8,0.2c-1,0-1.8,0-2.2-0.1
	c-0.4-0.1-0.7-0.3-0.9-0.5c0,0,0,0-0.1-0.2c-1.8-2.3-4-4.8-6.4-7.7l-9-10.7c-1.6-1.9-3-3.4-4.3-4.7c-1.3-1.3-2.2-2-2.7-2.3
	c-1.3-0.7-4.2-1.1-8.6-1.2c-0.3,0-0.5,0-0.6,0v19.2c0,1.9,0.4,3.2,1.1,4c0.7,0.8,2,1.2,3.7,1.3l3.2,0.1c0,0,0.1,0,0.3,0
	c1.1,0,1.7,0.5,1.7,1.3c0,0.7-0.1,1.1-0.3,1.3c-0.2,0.1-0.7,0.2-1.5,0.2c-0.2,0-0.8,0-1.7,0c-3.9-0.2-7.5-0.3-11.1-0.3
	c-3.5,0-7.2,0.1-11,0.2c-0.9,0-1.5,0.1-1.8,0.1c-0.8,0-1.4-0.1-1.6-0.3c-0.2-0.2-0.4-0.6-0.4-1.2c0-0.8,0.6-1.3,1.6-1.3
	c0.2,0,0.3,0,0.4,0l3.4-0.1c1.7-0.1,2.9-0.5,3.7-1.3C737.6,1846,737.9,1844.7,737.9,1842.9L737.9,1842.9z M894.5,1846.3
	c0,0.4,0,0.7,0,0.9c0,0.2,0.1,0.4,0.1,0.6c1.6,0.2,3.3,0.3,5,0.4c1.8,0.1,3.7,0.1,5.8,0.1c3.9,0,7.2-0.2,9.8-0.5
	c2.7-0.4,5.1-0.9,7.3-1.7c3.6-1.3,6.3-3.8,8.1-7.4c1.8-3.6,2.7-8.5,2.7-14.6c0-9.3-1.9-15.7-5.6-19.2c-3.7-3.5-10.4-5.3-20-5.3
	c-2,0-4.1,0-6.2,0.2c-2.1,0.1-4.3,0.3-6.6,0.5c-0.1,1.2-0.2,2.2-0.3,3.2c0,0.9-0.1,1.7-0.1,2.4V1846.3z M885.2,1842.9v-37.7
	c0-2-0.4-3.3-1.1-4.2c-0.7-0.8-1.9-1.3-3.6-1.3l-3.4,0c-0.9,0-1.5-0.1-1.6-0.2c-0.2-0.1-0.3-0.5-0.3-1.1c0-0.6,0.1-0.9,0.3-1.1
	c0.2-0.1,0.7-0.2,1.6-0.2c0.5,0,2,0,4.4,0.1c2.4,0.1,4.5,0.2,6.4,0.2c1,0,4,0,9-0.2c5-0.1,9.4-0.1,13.3-0.1c6,0,10.5,0.2,13.5,0.7
	c3.1,0.5,5.8,1.2,8.2,2.3c4,1.8,7,4.6,8.9,8.3c1.9,3.8,2.8,8.8,2.8,15.3c0,5.6-0.6,10.1-1.9,13.8c-1.2,3.6-3.1,6.4-5.7,8.6
	c-2.5,2-5.8,3.3-9.7,4.2c-4,0.8-10,1.3-18,1.3c-2,0-5.1,0-9.3-0.2c-4.3-0.1-7.5-0.2-9.8-0.2c-2.6,0-5.2,0-7.9,0.1
	c-2.7,0.1-4.1,0.1-4.2,0.1c-0.8,0-1.4-0.1-1.6-0.2c-0.2-0.1-0.3-0.6-0.3-1.2c0-0.8,0.7-1.3,1.9-1.4l0,0l3.2-0.1
	c1.8-0.1,3-0.6,3.8-1.3C884.8,1846.1,885.2,1844.8,885.2,1842.9L885.2,1842.9z M998.2,1842.9v-37.8c0-1.9-0.4-3.2-1.1-4
	c-0.7-0.7-2-1.2-3.7-1.3l-3.3-0.2h0c-1.3-0.1-2-0.6-2-1.4c0-0.6,0.1-1,0.3-1.2c0.2-0.1,0.8-0.2,1.7-0.2c0.1,0,0.7,0,1.7,0
	c6.7,0.2,13.7,0.3,21.1,0.3c6.4,0,12.9-0.1,19.5-0.2c6.7-0.1,10.2-0.2,10.6-0.2c0.8,0,1.4,0.1,1.6,0.2c0.2,0.1,0.3,0.4,0.3,0.9
	c0,0.1,0,0.4-0.1,0.8c-0.1,1.7-0.2,3.3-0.2,4.7c0,2,0,4,0.2,5.9c0,0.3,0,0.5,0,0.5c0,0.3-0.2,0.5-0.7,0.6c-0.5,0.1-1.3,0.2-2.7,0.2
	c-1.3,0-2.2-0.8-2.4-2.3c-0.2-1.4-0.5-2.7-0.9-3.7c-0.6-1.8-1.8-3.1-3.6-3.8c-1.8-0.7-6-1-12.4-1h-2c-1.3,0-2.9,0-5,0
	c-2,0-4.4,0.1-7.1,0.2c-0.1,0.8-0.2,1.5-0.3,2.2c0,0.7-0.1,1.3-0.1,1.9v17.1h8.4c4,0,6.5-0.3,7.6-0.8c1.1-0.6,1.9-1.8,2.4-3.8
	c0.1-0.5,0.2-1,0.2-1.3c0-0.4,0.1-0.7,0.1-1v-0.1c0-0.6,0.1-0.8,0.4-1c0.3-0.1,1-0.1,2.1-0.1c0.9,0,1.5,0,1.8,0.1
	c0.3,0,0.5,0.2,0.5,0.4c0,0.1,0,0.3,0,0.7c-0.2,2.6-0.4,5.4-0.4,8.2c0,2.9,0.1,5.6,0.4,8.3c0,0.4,0,0.6,0,0.7c0,0.2-0.1,0.3-0.5,0.4
	c-0.3,0-0.9,0.1-1.9,0.1c-1.1,0-1.7,0-2-0.1c-0.2,0-0.4-0.7-0.6-1.8c-0.3-2.7-1.1-4.5-2.2-5.2c-1.2-0.7-3.9-1.1-8.1-1.1h-8.4v24.1
	h19.4c3.8,0,6.6-0.5,8.2-1.5c1.7-1,2.8-2.9,3.4-5.6c0.2-0.9,0.4-2,0.6-3.3c0.2-1.7,1.5-2.6,3.9-2.6c0.7,0,1.3,0.1,1.6,0.3
	c0.3,0.2,0.4,0.6,0.4,1.1v12.5c0,1-0.1,1.6-0.5,1.9c-0.3,0.2-0.9,0.3-1.9,0.3c-0.3,0-1.1,0-2.5,0c-9.3-0.2-18.8-0.3-28.6-0.3
	c-7,0-13.6,0.1-20,0.3c-0.8,0-1.3,0-1.5,0c-0.8,0-1.4-0.1-1.6-0.3c-0.2-0.2-0.4-0.6-0.4-1.2c0-0.8,0.6-1.3,1.6-1.3
	c0.2,0,0.3,0,0.4,0l3.4-0.1c1.7-0.1,2.9-0.5,3.6-1.3C997.8,1846.1,998.2,1844.7,998.2,1842.9L998.2,1842.9z M1087,1848.1l0.6-12.4
	c0.1-0.7,0.3-1.1,0.6-1.3c0.3-0.2,1-0.2,2.1-0.2c2,0,3,0.7,3.2,2c0,0.8,0.1,1.5,0.2,2c0.7,4,2.3,6.8,4.8,8.6
	c2.6,1.8,6.3,2.7,11.2,2.7c5.8,0,10.3-1,13.7-3.1c3.4-2,5.1-4.8,5.1-8.4c0-2.5-0.9-4.6-2.7-6.3c-1.9-1.6-4.9-3.2-9.3-4.5
	c-2.2-0.7-5.3-1.6-9.6-2.7c-4.2-1.1-7-2-8.4-2.7c-3.1-1.5-5.3-3.2-6.7-5c-1.3-1.9-2-4.2-2-6.9c0-4.4,2.1-7.9,6.5-10.4
	c4.3-2.5,10.3-3.8,17.9-3.8c3.1,0,6.2,0.2,9.2,0.6c3,0.4,5.9,0.9,8.5,1.6l1.5,0.4c0.5,0.1,0.8,0.2,1,0.4c0.2,0.1,0.3,0.4,0.3,0.7
	v11.3c0,0.4-0.2,0.7-0.6,0.9c-0.3,0.1-1.1,0.2-2.2,0.2c-1.4,0-2.4-0.4-3-1.2c-0.6-0.7-0.9-2.1-0.9-3.9c0-0.8-0.4-1.8-1.2-2.9
	c-0.8-1.1-1.7-2-2.8-2.8c-1.3-0.8-2.7-1.4-4.5-1.8c-1.7-0.4-3.7-0.6-5.9-0.6c-4.7,0-8.4,0.8-11,2.5c-2.7,1.6-4,4-4,6.9
	c0,2.4,0.7,4.3,2.1,5.8c1.4,1.5,3.8,2.7,7,3.8c2.4,0.7,5.9,1.7,10.2,2.7c4.4,1.1,7.3,2,8.8,2.6c4,1.8,6.8,3.6,8.5,5.5
	c1.6,1.9,2.4,4.3,2.4,7.2c0,5.3-2.5,9.4-7.5,12.4c-5,2.9-12,4.4-20.9,4.4c-2.7,0-5.7-0.2-8.7-0.6c-3.1-0.4-6.8-1.1-11.2-2
	c-1-0.2-1.7-0.5-2-0.7C1087.2,1848.8,1087,1848.4,1087,1848.1L1087,1848.1z M1189.7,1842.9v-37.7c0-1.9-0.4-3.2-1.1-4
	c-0.7-0.8-2-1.2-3.7-1.3l-3.2-0.1c-1.3-0.1-2-0.6-2-1.4c0-0.6,0.1-1,0.3-1.2c0.2-0.1,0.7-0.2,1.6-0.2c0.2,0,0.7,0,1.6,0.1
	c4,0.1,7.8,0.2,11.4,0.2c3.5,0,7.2-0.1,11-0.2c1,0,1.6-0.1,1.8-0.1c0.8,0,1.4,0.1,1.6,0.2c0.2,0.1,0.3,0.6,0.3,1.2
	c0,0.9-0.7,1.3-1.9,1.4l0,0l-3.4,0.1c-1.7,0.1-2.9,0.5-3.6,1.3c-0.7,0.8-1.1,2.1-1.1,4v37.7c0,1.9,0.4,3.2,1.1,4
	c0.7,0.8,2,1.2,3.7,1.3l3.3,0.1c0,0,0.2,0,0.3,0c1.1,0,1.6,0.5,1.6,1.3c0,0.7-0.1,1.1-0.3,1.3c-0.2,0.1-0.7,0.2-1.6,0.2
	c-0.2,0-0.8,0-1.8-0.1c-3.8-0.1-7.5-0.2-11-0.2c-3.7,0-7.5,0.1-11.5,0.3c-0.8,0-1.4,0-1.6,0c-0.8,0-1.3-0.1-1.5-0.2
	c-0.2-0.2-0.4-0.6-0.4-1.3c0-0.8,0.6-1.3,1.7-1.3c0.1,0,0.2,0,0.3,0l3.3-0.1c1.7-0.1,2.9-0.5,3.7-1.3
	C1189.3,1846,1189.7,1844.7,1189.7,1842.9L1189.7,1842.9z M1295.9,1844.6c0,0.6,0.1,1.3,0.3,2c0.1,0.7,0.2,1.1,0.2,1.2
	c0,0.9-2.8,1.9-8.5,2.9c-5.7,1-12.1,1.5-19.3,1.5c-12.3,0-21.2-2.2-26.6-6.6c-5.4-4.4-8.1-11.6-8.1-21.7c0-9.8,2.9-17,8.7-21.5
	s15-6.7,27.6-6.7c3.1,0,6.4,0.2,9.9,0.5c3.4,0.4,7.9,1,13.3,1.9c0.8,0.2,1.3,0.3,1.6,0.5c0.3,0.1,0.4,0.3,0.4,0.6v11.1
	c0,0.4-0.2,0.7-0.6,0.9c-0.4,0.1-1.3,0.2-2.7,0.2s-2.3-0.7-2.7-2c-0.1-0.5-0.2-0.8-0.3-1.2c-1.2-3.7-3.1-6.3-5.7-7.7
	c-2.6-1.4-6.8-2.1-12.5-2.1c-9.3,0-16.1,2-20.3,5.9c-4.1,4-6.2,10.4-6.2,19.3c0,9,1.9,15.6,5.7,19.7c3.8,4.1,9.9,6.2,18.1,6.2
	c5.6,0,10-0.5,13.3-1.5c3.3-1,4.9-2.3,4.9-4v-6c0-1.9-0.5-3.2-1.3-4c-0.9-0.8-2.3-1.3-4.3-1.3l-5.1-0.2c0,0-0.2,0-0.4,0
	c-1.1,0-1.6-0.5-1.6-1.3c0-0.6,0.1-1,0.3-1.2c0.2-0.2,0.7-0.3,1.6-0.3c0.2,0,0.7,0,1.6,0.1c4.4,0.2,8.7,0.3,13,0.3
	c2.4,0,4.8,0,7.4-0.2c2.6-0.1,4-0.2,4.2-0.2c0.9,0,1.4,0.1,1.7,0.2c0.2,0.1,0.3,0.6,0.3,1.2c0,0.6-0.1,0.9-0.3,1.1
	c-0.1,0.1-0.6,0.2-1.4,0.3l-2.5,0.1c-1.3,0.1-2.3,0.6-2.9,1.3c-0.6,0.8-0.9,2.2-0.9,4.1V1844.6z M1354.9,1834.4v-31.6
	c0-0.7-0.5-1.4-1.5-2c-1-0.7-2.1-0.9-3.4-1l-3.3-0.1c-0.8,0-1.3-0.1-1.6-0.3c-0.2-0.2-0.4-0.6-0.4-1.1c0-0.7,0.1-1,0.3-1.2
	c0.2-0.1,0.7-0.2,1.6-0.2c0.1,0,1.1,0,2.9,0.1c1.8,0.1,3.5,0.1,5.2,0.1c0.7,0,1.7,0,3.1-0.1c1.3,0,2.4-0.1,3.2-0.1
	c0.7,0,1.3,0,1.6,0.1c0.3,0.1,0.7,0.3,0.9,0.5c0,0,0.9,1,2.7,2.8c1.7,1.8,3.6,3.6,5.6,5.6l37.1,36l-0.7-30c0-0.2,0-0.6,0-1
	c-0.2-7.3-1.6-10.9-4.4-10.9l-3.5-0.1c-0.7,0-1.1-0.1-1.3-0.3c-0.2-0.2-0.4-0.6-0.4-1.2c0-0.7,0.1-1.1,0.3-1.2
	c0.2-0.1,0.8-0.2,1.8-0.2c0.1,0,0.5,0,1.1,0c3.1,0.2,6.1,0.3,9.1,0.3c3,0,6-0.1,9-0.3c0.7,0,1,0,1.1,0c1,0,1.6,0.1,1.8,0.2
	c0.2,0.1,0.3,0.6,0.3,1.2c0,0.6-0.1,1-0.3,1.2c-0.2,0.1-0.7,0.3-1.3,0.3l-2.7,0.1c-2.2,0-3.8,0.9-4.6,2.5c-0.8,1.6-1.3,5.3-1.3,11.2
	v27.8c0,2.7,0.1,5.3,0.3,7.7c0,0.4,0,0.6,0,0.7c0,0.5-0.2,0.9-0.4,1.1c-0.2,0.3-0.5,0.4-0.9,0.4c-0.5,0-1,0-1.7-0.1
	c-0.7,0-1.1-0.1-1.3-0.1c0,0-0.2,0-0.5,0c-0.3,0-0.5,0-0.7,0c-0.9,0-1.6-0.2-1.9-0.7c-0.1-0.1-0.2-0.2-0.3-0.4c0,0-0.2-0.3-0.7-0.8
	c-2.5-2.5-4.9-4.9-7.4-7.4l-38.3-36.9l0.9,31.3c0,0.4,0,0.8,0,1.5c0.2,6.8,1.6,10.3,4.4,10.5l3.3,0.1h0.1c1.1,0.1,1.6,0.5,1.6,1.3
	c0,0.7-0.1,1.1-0.4,1.3c-0.2,0.1-0.8,0.2-1.7,0.2c-0.1,0-0.5,0-1.1,0c-3-0.2-6-0.3-9.1-0.3c-3,0-6,0.1-9,0.3c-0.6,0-0.9,0-1.1,0
	c-0.9,0-1.4-0.1-1.7-0.2c-0.2-0.1-0.3-0.6-0.3-1.3c0-0.8,0.5-1.3,1.5-1.3l2.7-0.1c2.3-0.1,3.8-1,4.6-2.6
	C1354.5,1844,1354.9,1840.3,1354.9,1834.4L1354.9,1834.4z"/>
<rect x="71.8" y="1707.9" fill-rule="evenodd" clip-rule="evenodd" fill="#FFFFFF" width="1353.3" height="11.4"/>
</svg>
